<svg width="19" height="22" viewBox="0 0 19 22" fill="none" xmlns="http://www.w3.org/2000/svg">
    <path fill-rule="evenodd" clip-rule="evenodd" d="M14.3929 15.3096L18.7857 20.4643L18.0238 21.1191L13.619 15.9643C12.1031 17.1151 10.3968 17.6905 8.49992 17.6905C7.34911 17.6905 6.24792 17.4663 5.19636 17.0179C4.1448 16.5695 3.24003 15.9663 2.48206 15.2084C1.7241 14.4505 1.12092 13.5457 0.672548 12.4941C0.224173 11.4425 -2.97819e-05 10.3413 -6.10319e-05 9.19054C-9.22819e-05 8.03975 0.224111 6.93857 0.672548 5.88697C1.12099 4.83538 1.72416 3.93061 2.48206 3.17268C3.23997 2.41474 4.14474 1.81157 5.19636 1.36316C6.24799 0.914755 7.34917 0.690552 8.49992 0.690552C9.65067 0.690552 10.7519 0.914755 11.8035 1.36316C12.8551 1.81157 13.7599 2.41474 14.5178 3.17268C15.2757 3.93061 15.8789 4.83538 16.3273 5.88697C16.7757 6.93857 16.9999 8.03975 16.9999 9.19054C16.9999 10.3731 16.7698 11.4921 16.3094 12.5477C15.8491 13.6032 15.2102 14.5239 14.3928 15.3096L14.3929 15.3096ZM8.50002 16.6905C9.85714 16.6905 11.1111 16.3552 12.2619 15.6845C13.4127 15.0138 14.3235 14.1031 14.9941 12.9523C15.6647 11.8016 16 10.5476 16.0001 9.19044C16.0001 7.83329 15.6648 6.57932 14.9941 5.42854C14.3234 4.27775 13.4127 3.36705 12.2619 2.69643C11.1112 2.0258 9.85721 1.69049 8.50002 1.69049C7.14283 1.69049 5.88886 2.0258 4.73811 2.69643C3.58736 3.36705 2.67666 4.27775 2.006 5.42854C1.33535 6.57932 1.00003 7.83329 1.00006 9.19044C1.0001 10.5476 1.33541 11.8016 2.006 12.9523C2.6766 14.1031 3.5873 15.0138 4.73811 15.6845C5.88892 16.3552 7.14289 16.6905 8.50002 16.6905Z" fill="#B3B3B3"/>
</svg>
